<svg width="19" height="24" viewBox="0 0 19 24" fill="none" xmlns="http://www.w3.org/2000/svg">
<path d="M9.41257 10.8293C8.13029 9.8813 6.20857 8.22359 0.698857 8.22359V20.0933C6.20857 20.0933 8.13029 21.751 9.41257 22.699M9.41257 10.8293V22.699M9.41257 10.8293C10.6949 9.8813 12.6166 8.22359 18.1263 8.22359V20.0933C12.6166 20.0933 10.6949 21.751 9.41257 22.699M12.8171 0.593305V4.76245M15.8634 0.500734H4.41714C4.09735 0.500345 3.78382 0.589415 3.512 0.757877L0.5 2.63331L3.512 4.50531C3.78382 4.67377 4.09735 4.76284 4.41714 4.76245H15.8634C16.1482 4.77053 16.4318 4.72141 16.6972 4.618C16.9627 4.5146 17.2048 4.359 17.4091 4.16041C17.6134 3.96182 17.7758 3.72428 17.8867 3.46183C17.9976 3.19938 18.0547 2.91736 18.0547 2.63245C18.0547 2.34753 17.9976 2.06551 17.8867 1.80306C17.7758 1.54062 17.6134 1.30308 17.4091 1.10449C17.2048 0.9059 16.9627 0.7503 16.6972 0.646892C16.4318 0.543484 16.1482 0.492653 15.8634 0.500734Z" stroke="#0A400C" stroke-linecap="round" stroke-linejoin="round"/>
</svg>
