<svg width="22" height="22" viewBox="0 0 22 22" fill="none" xmlns="http://www.w3.org/2000/svg">
<path d="M16.25 16.25L20.75 20.75" stroke="#0A400C" stroke-width="1.5" stroke-linecap="round" stroke-linejoin="round"/>
<path d="M18.75 9.75C18.75 7.36305 17.8018 5.07387 16.114 3.38604C14.4261 1.69821 12.1369 0.75 9.75 0.75C7.36305 0.75 5.07387 1.69821 3.38604 3.38604C1.69821 5.07387 0.75 7.36305 0.75 9.75C0.75 12.1369 1.69821 14.4261 3.38604 16.114C5.07387 17.8018 7.36305 18.75 9.75 18.75C12.1369 18.75 14.4261 17.8018 16.114 16.114C17.8018 14.4261 18.75 12.1369 18.75 9.75Z" stroke="#0A400C" stroke-width="1.5" stroke-linejoin="round"/>
<path d="M5.25 12.75L7.092 7.224C7.13824 7.08609 7.22664 6.9662 7.34471 6.88126C7.46278 6.79632 7.60455 6.75062 7.75 6.75062C7.89545 6.75062 8.03722 6.79632 8.15529 6.88126C8.27336 6.9662 8.36176 7.08609 8.408 7.224L10.25 12.75M13.25 6.75V12.75M6.25 10.75H9.25" stroke="#0A400C" stroke-width="1.5" stroke-linecap="round" stroke-linejoin="round"/>
</svg>
