<svg width="19" height="24" viewBox="0 0 19 24" fill="none" xmlns="http://www.w3.org/2000/svg">
<path d="M9.41257 10.8294C8.13029 9.88143 6.20857 8.22371 0.698857 8.22371V20.0934C6.20857 20.0934 8.13029 21.7511 9.41257 22.6991M9.41257 10.8294V22.6991M9.41257 10.8294C10.6949 9.88143 12.6166 8.22371 18.1263 8.22371V20.0934C12.6166 20.0934 10.6949 21.7511 9.41257 22.6991M12.8171 0.593427V4.76257M15.8634 0.500856H4.41714C4.09735 0.500467 3.78382 0.589537 3.512 0.757999L0.5 2.63343L3.512 4.50543C3.78382 4.67389 4.09735 4.76296 4.41714 4.76257H15.8634C16.1482 4.77065 16.4318 4.72153 16.6972 4.61813C16.9627 4.51472 17.2048 4.35912 17.4091 4.16053C17.6134 3.96194 17.7758 3.7244 17.8867 3.46195C17.9976 3.19951 18.0547 2.91748 18.0547 2.63257C18.0547 2.34766 17.9976 2.06563 17.8867 1.80319C17.7758 1.54074 17.6134 1.3032 17.4091 1.10461C17.2048 0.906022 16.9627 0.750422 16.6972 0.647014C16.4318 0.543606 16.1482 0.492775 15.8634 0.500856Z" stroke="#C2C2C2" stroke-linecap="round" stroke-linejoin="round"/>
</svg>
