<svg width="21" height="15" viewBox="0 0 21 15" fill="none" xmlns="http://www.w3.org/2000/svg">
<path fill-rule="evenodd" clip-rule="evenodd" d="M9.93385 10.4557C9.73639 10.4782 9.5378 10.4893 9.33906 10.4891H6.25V13.0208C6.25 13.0208 5.83021 12.9359 5.20833 12.6964C3.43021 12.0125 0 10.0677 0 5.24479C0 2.34896 2.34792 0 5.24479 0H9.33854C11.8656 0 13.9755 1.7875 14.4724 4.16667H16.638C17.7507 4.1668 18.8178 4.60893 19.6046 5.39578C20.3913 6.18264 20.8333 7.24979 20.8333 8.3625C20.8333 12.1536 17.7979 13.7219 16.1458 14.2943C15.5286 14.5083 15.1042 14.5833 15.1042 14.5833V12.5578H13.5708C12.8333 12.5583 12.1087 12.3642 11.4701 11.9951C10.8315 11.626 10.3016 11.095 9.93385 10.4557ZM5.20833 9.4474V11.5698C4.68943 11.3421 4.19577 11.0607 3.73542 10.7302C2.38646 9.75469 1.04167 8.10104 1.04167 5.24427C1.0418 4.12962 1.48469 3.06068 2.27292 2.27255C3.06114 1.48442 4.13014 1.04167 5.24479 1.04167H9.33854C10.4106 1.04168 11.4422 1.45137 12.2221 2.1869C13.0021 2.92243 13.4715 3.9282 13.5344 4.99844C13.5323 5.04462 13.5293 5.09045 13.5255 5.13594C13.4712 5.83263 13.2779 6.51139 12.957 7.13219C12.6361 7.75298 12.1942 8.30324 11.6573 8.75052C10.9701 9.20625 10.1636 9.4487 9.33906 9.4474H5.20833ZM12.2786 9.58802C11.9203 9.88209 11.5305 10.1354 11.1161 10.3432C11.4117 10.7097 11.7856 11.0053 12.2104 11.2082C12.6352 11.4112 13.1 11.5164 13.5708 11.5161H16.1458V13.1833C16.5867 13.0095 17.0108 12.796 17.413 12.5453C18.6458 11.7667 19.7917 10.5021 19.7917 8.3625C19.7917 7.52605 19.4594 6.72386 18.868 6.13235C18.2766 5.54085 17.4745 5.20847 16.638 5.20833H14.5833V5.24479C14.5833 7.05156 13.6693 8.64479 12.2786 9.58802Z" fill="#C2C2C2"/>
</svg>
