<svg width="28" height="28" viewBox="0 0 28 28" fill="none" xmlns="http://www.w3.org/2000/svg">
<path d="M21.7675 1.36685L21.3834 0.579346L20.5976 0.964346C17.2429 2.6006 15.8341 6.64922 17.4739 10.0092L17.5229 10.1098C16.6907 12.1727 15.2806 13.9513 13.462 15.2321L12.6526 13.567C13.6929 13.0075 14.4766 12.0676 14.8398 10.9436C15.2029 9.81968 15.1175 8.59885 14.6012 7.53647L12.6351 3.49485L11.8485 3.87722C10.758 4.40795 9.92304 5.35014 9.52725 6.4965C9.13145 7.64286 9.20726 8.8995 9.73799 9.98997L11.0829 12.755C11.091 12.7783 11.1004 12.8008 11.1109 12.8223L12.5896 15.8638C10.7035 17.3532 9.2826 19.3509 8.49461 21.6213L8.27061 22.2688L7.42711 20.5337C8.71188 19.854 9.68262 18.7021 10.1347 17.3207C10.5869 15.9394 10.4851 14.4364 9.85086 13.1286L7.43586 8.17435L6.64836 8.55935C3.87286 9.9156 2.70911 13.2642 4.06799 16.0467L6.06649 20.1461C6.07524 20.1735 6.08603 20.2003 6.09886 20.2266L7.78061 23.6863L7.01586 25.9001L8.01336 26.2413L8.89449 23.6977L12.2195 24.0442L12.2834 24.046L16.2524 24.4607C16.9844 24.5378 17.7244 24.47 18.4301 24.261C19.1359 24.052 19.7935 23.706 20.3655 23.2427C20.9375 22.7794 21.4126 22.208 21.7636 21.5611C22.1147 20.9142 22.3348 20.2044 22.4115 19.4723L22.5025 18.6017L17.0206 18.0303C15.5726 17.8778 14.1221 18.2949 12.9763 19.1934C11.8306 20.0919 11.0796 21.4011 10.8825 22.8437L9.24886 22.6731L9.49211 21.9713C10.1763 20.0077 11.378 18.2653 12.9702 16.9278L15.7991 17.228V17.2297L16.3477 17.2866L16.7914 17.3338L16.815 17.3356L20.2774 17.697C22.7851 17.956 25.0391 16.1395 25.299 13.6265L25.3891 12.7567L20.9179 12.2903H20.9152C18.4591 12.0261 16.269 13.7673 15.9164 16.1797L14.2215 15.9986C16.1467 14.5994 17.6362 12.6836 18.5177 10.473L18.6429 10.4117C22.0081 8.7746 23.4064 4.72422 21.7666 1.36685M18.7277 8.31435L18.698 8.3056C18.4506 7.34547 18.4929 6.33359 18.8195 5.39746C19.1462 4.46133 19.7427 3.64283 20.5337 3.0451C20.7874 4.00355 20.7513 5.0157 20.4298 5.95359C20.1083 6.89149 19.516 7.71303 18.7277 8.31435ZM11.3112 9.22522C11.0505 8.68954 10.9656 8.08515 11.0689 7.49838C11.1721 6.9116 11.4581 6.37246 11.8861 5.95797L13.0271 8.30122C13.2872 8.83696 13.3713 9.44115 13.2676 10.0276C13.1639 10.614 12.8776 11.1527 12.4496 11.5667L11.3112 9.22522ZM5.63949 15.2785C5.25936 14.4972 5.15467 13.6103 5.34245 12.762C5.53022 11.9137 5.99941 11.1538 6.67374 10.606L8.27499 13.8916C8.65417 14.6732 8.75852 15.5608 8.57114 16.409C8.38376 17.2573 7.91563 18.0176 7.24249 18.5667L5.63949 15.2785ZM20.4576 15.9566L17.8632 15.6853C18.1042 15.1417 18.5115 14.6886 19.0265 14.3912C19.5415 14.0939 20.1376 13.9677 20.7289 14.0307H20.7315L23.3294 14.302C23.0857 14.8448 22.6769 15.297 22.1613 15.5939C21.6457 15.8908 21.0494 16.0183 20.4576 15.9566ZM12.7926 22.3388C13.0787 21.5172 13.634 20.8164 14.3684 20.3501C15.1029 19.8837 15.9734 19.6793 16.8386 19.7698L20.4804 20.1496C20.1943 20.9712 19.639 21.6721 18.9046 22.1384C18.1701 22.6047 17.2996 22.8092 16.4344 22.7186L12.7926 22.3388Z" fill="#C2C2C2"/>
</svg>
