<svg width="28" height="28" viewBox="0 0 28 28" fill="none" xmlns="http://www.w3.org/2000/svg">
<path d="M14 4.37496C13.7319 4.37496 13.4664 4.42777 13.2187 4.53037C12.971 4.63298 12.746 4.78336 12.5564 4.97295C12.3668 5.16254 12.2164 5.38761 12.1138 5.63531C12.0112 5.88302 11.9584 6.14851 11.9584 6.41663C11.9584 6.68474 12.0112 6.95023 12.1138 7.19794C12.2164 7.44564 12.3668 7.67072 12.5564 7.8603C12.746 8.04989 12.971 8.20028 13.2187 8.30288C13.4664 8.40548 13.7319 8.45829 14 8.45829C14.5415 8.45829 15.0608 8.24319 15.4437 7.8603C15.8266 7.47742 16.0417 6.95811 16.0417 6.41663C16.0417 5.87514 15.8266 5.35584 15.4437 4.97295C15.0608 4.59006 14.5415 4.37496 14 4.37496ZM10.5 6.41663C10.5 5.48837 10.8688 4.59813 11.5252 3.94175C12.1815 3.28538 13.0718 2.91663 14 2.91663C14.9283 2.91663 15.8185 3.28538 16.4749 3.94175C17.1313 4.59813 17.5 5.48837 17.5 6.41663C17.5 7.34488 17.1313 8.23512 16.4749 8.8915C15.8185 9.54788 14.9283 9.91663 14 9.91663C13.0718 9.91663 12.1815 9.54788 11.5252 8.8915C10.8688 8.23512 10.5 7.34488 10.5 6.41663ZM21.5834 5.54163C21.1966 5.54163 20.8257 5.69527 20.5522 5.96876C20.2787 6.24225 20.125 6.61319 20.125 6.99996C20.125 7.38673 20.2787 7.75767 20.5522 8.03116C20.8257 8.30465 21.1966 8.45829 21.5834 8.45829C21.9701 8.45829 22.3411 8.30465 22.6146 8.03116C22.8881 7.75767 23.0417 7.38673 23.0417 6.99996C23.0417 6.61319 22.8881 6.24225 22.6146 5.96876C22.3411 5.69527 21.9701 5.54163 21.5834 5.54163ZM18.6667 6.99996C18.6667 6.22641 18.974 5.48455 19.521 4.93756C20.068 4.39058 20.8098 4.08329 21.5834 4.08329C22.3569 4.08329 23.0988 4.39058 23.6458 4.93756C24.1928 5.48455 24.5 6.22641 24.5 6.99996C24.5 7.77351 24.1928 8.51537 23.6458 9.06235C23.0988 9.60933 22.3569 9.91663 21.5834 9.91663C20.8098 9.91663 20.068 9.60933 19.521 9.06235C18.974 8.51537 18.6667 7.77351 18.6667 6.99996ZM4.95837 6.99996C4.95837 6.61319 5.11202 6.24225 5.38551 5.96876C5.659 5.69527 6.02993 5.54163 6.41671 5.54163C6.80348 5.54163 7.17441 5.69527 7.44791 5.96876C7.7214 6.24225 7.87504 6.61319 7.87504 6.99996C7.87504 7.38673 7.7214 7.75767 7.44791 8.03116C7.17441 8.30465 6.80348 8.45829 6.41671 8.45829C6.02993 8.45829 5.659 8.30465 5.38551 8.03116C5.11202 7.75767 4.95837 7.38673 4.95837 6.99996ZM6.41671 4.08329C5.64316 4.08329 4.90129 4.39058 4.35431 4.93756C3.80733 5.48455 3.50004 6.22641 3.50004 6.99996C3.50004 7.77351 3.80733 8.51537 4.35431 9.06235C4.90129 9.60933 5.64316 9.91663 6.41671 9.91663C7.19026 9.91663 7.93212 9.60933 8.4791 9.06235C9.02608 8.51537 9.33337 7.77351 9.33337 6.99996C9.33337 6.22641 9.02608 5.48455 8.4791 4.93756C7.93212 4.39058 7.19026 4.08329 6.41671 4.08329ZM8.75004 13.5625C8.75004 12.9049 9.01124 12.2744 9.47617 11.8094C9.94111 11.3445 10.5717 11.0833 11.2292 11.0833H16.7709C17.4284 11.0833 18.059 11.3445 18.5239 11.8094C18.9888 12.2744 19.25 12.9049 19.25 13.5625V19.8333C19.25 21.2257 18.6969 22.561 17.7124 23.5456C16.7278 24.5302 15.3924 25.0833 14 25.0833C12.6077 25.0833 11.2723 24.5302 10.2877 23.5456C9.30316 22.561 8.75004 21.2257 8.75004 19.8333V13.5625ZM14 23.625C15.0057 23.625 15.9701 23.2255 16.6812 22.5144C17.3922 21.8033 17.7917 20.8389 17.7917 19.8333V13.5625C17.7917 13.2917 17.6842 13.0321 17.4927 12.8406C17.3013 12.6492 17.0416 12.5416 16.7709 12.5416H11.2292C10.9585 12.5416 10.6988 12.6492 10.5074 12.8406C10.3159 13.0321 10.2084 13.2917 10.2084 13.5625V19.8333C10.2084 20.8389 10.6079 21.8033 11.3189 22.5144C12.03 23.2255 12.9944 23.625 14 23.625ZM6.41671 21.875C6.90444 21.8751 7.38256 21.7394 7.79746 21.483C7.92521 21.9648 8.10779 22.4239 8.33762 22.8538C7.7154 23.1855 7.01789 23.3504 6.313 23.3325C5.60811 23.3146 4.91987 23.1145 4.3153 22.7516C3.71072 22.3887 3.21042 21.8755 2.8631 21.2618C2.51578 20.6482 2.33328 19.9551 2.33337 19.25V13.563C2.3333 13.2374 2.39737 12.915 2.52192 12.6141C2.64648 12.3133 2.82908 12.0399 3.0593 11.8096C3.28952 11.5794 3.56285 11.3967 3.86367 11.2721C4.16449 11.1474 4.48692 11.0833 4.81254 11.0833H8.02087C8.18926 11.0837 8.35279 11.0998 8.51146 11.1317C8.14817 11.5372 7.88046 12.019 7.72804 12.5416H4.81254C4.5418 12.5416 4.28215 12.6492 4.0907 12.8406C3.89926 13.0321 3.79171 13.2917 3.79171 13.5625V19.25C3.79171 19.9462 4.06827 20.6138 4.56055 21.1061C5.05284 21.5984 5.72051 21.875 6.41671 21.875ZM21.5834 23.3333C20.9135 23.3336 20.2538 23.1692 19.6625 22.8544C19.8923 22.4239 20.0749 21.9648 20.2026 21.483C20.6003 21.7289 21.0564 21.8642 21.5239 21.8748C21.9913 21.8854 22.4531 21.7709 22.8615 21.5433C23.2699 21.3156 23.6101 20.983 23.8469 20.5798C24.0837 20.1766 24.2085 19.7175 24.2084 19.25V13.5625C24.2084 13.2917 24.1008 13.0321 23.9094 12.8406C23.7179 12.6492 23.4583 12.5416 23.1875 12.5416H20.272C20.1195 12.0189 19.8515 11.5371 19.488 11.1317C19.6475 11.0998 19.8112 11.0837 19.9792 11.0833H23.1875C23.8451 11.0833 24.4756 11.3445 24.9406 11.8094C25.4055 12.2744 25.6667 12.9049 25.6667 13.5625V19.25C25.6667 20.3329 25.2365 21.3715 24.4707 22.1373C23.705 22.9031 22.6663 23.3333 21.5834 23.3333Z" fill="#C2C2C2"/>
</svg>
