<svg width="20" height="20" viewBox="0 0 20 20" fill="none" xmlns="http://www.w3.org/2000/svg">
<path fill-rule="evenodd" clip-rule="evenodd" d="M0.833333 0C0.373096 0 0 0.373096 0 0.833333C0 1.29357 0.373096 1.66667 0.833333 1.66667H3.48359L4.17662 5.12923C4.18032 5.15294 4.18501 5.17632 4.19066 5.19933L5.58263 12.154C5.69705 12.7292 6.0102 13.2466 6.46706 13.6144C6.92183 13.9805 7.49031 14.1758 8.07386 14.1667H16.1595C16.743 14.1758 17.3115 13.9805 17.7663 13.6144C18.2233 13.2465 18.5364 12.7295 18.6507 12.154L18.6519 12.1478L19.9852 5.1561C20.0318 4.91214 19.967 4.66015 19.8087 4.46879C19.6504 4.27744 19.415 4.16666 19.1667 4.16666H5.68369L4.98379 0.669785C4.90584 0.280321 4.56385 0 4.16666 0H0.833333ZM6.01727 5.83333H18.1594L17.0154 11.832C16.9769 12.0227 16.8728 12.194 16.7211 12.3161C16.5688 12.4387 16.3782 12.5039 16.1826 12.5001L16.1667 12.5H8.06666L8.05069 12.5001C7.85515 12.5039 7.66452 12.4387 7.51217 12.3161C7.35982 12.1935 7.25546 12.0211 7.21736 11.8293L6.01727 5.83333Z" fill="#C2C2C2"/>
<path d="M5.83333 17.5C5.83333 16.5795 6.57952 15.8333 7.5 15.8333C8.42047 15.8333 9.16666 16.5795 9.16666 17.5C9.16666 18.4205 8.42047 19.1667 7.5 19.1667C6.57952 19.1667 5.83333 18.4205 5.83333 17.5Z" fill="#C2C2C2"/>
<path d="M15 17.5C15 16.5795 15.7462 15.8333 16.6667 15.8333C17.5871 15.8333 18.3333 16.5795 18.3333 17.5C18.3333 18.4205 17.5871 19.1667 16.6667 19.1667C15.7462 19.1667 15 18.4205 15 17.5Z" fill="#C2C2C2"/>
</svg>
